HIERARCHY
ROOT Hips
{
	OFFSET 0.000000 0.000000 0.000000
	CHANNELS 6 Xposition Yposition Zposition Zrotation Yrotation Xrotation 
	JOINT LHipJoint
	{
		OFFSET 0.000000 0.000000 0.000000
		CHANNELS 3 Zrotation Yrotation Xrotation
		JOINT LeftUpLeg
		{
			OFFSET 8.178360 -10.767780 5.035740
			CHANNELS 3 Zrotation Yrotation Xrotation
			JOINT LeftLeg
			{
				OFFSET 14.688660 -40.356780 0.000000
				CHANNELS 3 Zrotation Yrotation Xrotation
				JOINT LeftFoot
				{
					OFFSET 15.373200 -42.237540 0.000000
					CHANNELS 3 Zrotation Yrotation Xrotation
					JOINT LeftToeBase
					{
						OFFSET 0.945840 -2.598660 13.935300
						CHANNELS 3 Zrotation Yrotation Xrotation
						End Site
						{
							OFFSET 0.000000 0.000000 0.000000
						}
					}
				}
			}
		}
	}
	JOINT RHipJoint
	{
		OFFSET 0.000000 0.000000 0.000000
		CHANNELS 3 Zrotation Yrotation Xrotation
		JOINT RightUpLeg
		{
			OFFSET -7.833120 -10.767780 5.035740
			CHANNELS 3 Zrotation Yrotation Xrotation
			JOINT RightLeg
			{
				OFFSET -15.255180 -41.913300 0.000000
				CHANNELS 3 Zrotation Yrotation Xrotation
				JOINT RightFoot
				{
					OFFSET -15.409560 -42.337380 0.000000
					CHANNELS 3 Zrotation Yrotation Xrotation
					JOINT RightToeBase
					{
						OFFSET -0.988380 -2.715540 14.178900
						CHANNELS 3 Zrotation Yrotation Xrotation
						End Site
						{
							OFFSET 0.000000 0.000000 0.000000
						}
					}
				}
			}
		}
	}
	JOINT LowerBack
	{
		OFFSET 0.000000 0.000000 0.000000
		CHANNELS 3 Zrotation Yrotation Xrotation
		JOINT Spine
		{
			OFFSET 0.169620 12.213540 -1.160280
			CHANNELS 3 Zrotation Yrotation Xrotation
			JOINT Spine1
			{
				OFFSET 0.340320 12.293100 -0.256500
				CHANNELS 3 Zrotation Yrotation Xrotation
				JOINT Neck
				{
					OFFSET 0.000000 0.000000 0.000000
					CHANNELS 3 Zrotation Yrotation Xrotation
					JOINT Neck1
					{
						OFFSET -0.325020 10.477440 1.032120
						CHANNELS 3 Zrotation Yrotation Xrotation
						JOINT Head
						{
							OFFSET 0.624420 10.568160 -0.743820
							CHANNELS 3 Zrotation Yrotation Xrotation
							End Site
							{
								OFFSET 0.000000 0.000000 0.000000
							}
						}
					}
				}
				JOINT LeftShoulder
				{
					OFFSET 0.000000 0.000000 0.000000
					CHANNELS 3 Zrotation Yrotation Xrotation
					JOINT LeftArm
					{
						OFFSET 20.174460 7.205340 -1.867260
						CHANNELS 3 Zrotation Yrotation Xrotation
						JOINT LeftForeArm
						{
							OFFSET 29.898000 -0.000000 -0.000000
							CHANNELS 3 Zrotation Yrotation Xrotation
							JOINT LeftHand
							{
								OFFSET 20.901360 -0.000000 -0.000000
								CHANNELS 3 Zrotation Yrotation Xrotation
								JOINT LeftFingerBase
								{
									OFFSET 0.000000 0.000000 0.000000
									CHANNELS 3 Zrotation Yrotation Xrotation
									JOINT LeftHandIndex1
									{
										OFFSET 4.291560 -0.000000 -0.000000
										CHANNELS 3 Zrotation Yrotation Xrotation
										End Site
										{
											OFFSET 0.000000 0.000000 0.000000
										}
									}
								}
								JOINT LThumb
								{
									OFFSET 0.000000 0.000000 0.000000
									CHANNELS 3 Zrotation Yrotation Xrotation
									End Site
									{
										OFFSET 0.000000 0.000000 0.000000
									}
								}
							}
						}
					}
				}
				JOINT RightShoulder
				{
					OFFSET 0.000000 0.000000 0.000000
					CHANNELS 3 Zrotation Yrotation Xrotation
					JOINT RightArm
					{
						OFFSET -18.819600 8.244300 -2.427900
						CHANNELS 3 Zrotation Yrotation Xrotation
						JOINT RightForeArm
						{
							OFFSET -31.451400 -0.000000 -0.000000
							CHANNELS 3 Zrotation Yrotation Xrotation
							JOINT RightHand
							{
								OFFSET -20.665020 -0.000000 -0.000000
								CHANNELS 3 Zrotation Yrotation Xrotation
								JOINT RightFingerBase
								{
									OFFSET 0.000000 0.000000 0.000000
									CHANNELS 3 Zrotation Yrotation Xrotation
									JOINT RightHandIndex1
									{
										OFFSET -3.735180 -0.000000 -0.000000
										CHANNELS 3 Zrotation Yrotation Xrotation
										End Site
										{
											OFFSET 0.000000 0.000000 0.000000
										}
									}
								}
								JOINT RThumb
								{
									OFFSET 0.000000 0.000000 0.000000
									CHANNELS 3 Zrotation Yrotation Xrotation
									End Site
									{
										OFFSET 0.000000 0.000000 0.000000
									}
								}
							}
						}
					}
				}
			}
		}
	}
}
MOTION
Frames:	6
Frame Time:	0.0333333
5.662146 107.485326 -194.362200 -4.407683 2.018493 6.442015 4.724436 2.764002 1.642326 -18.820849 -14.412227 -33.413262 2.068491 9.207333 26.778539 0.584907 0.036283 13.260075 0.458900 -4.345700 -12.051300 -6.523797 -3.362661 -0.815527 38.017270 4.650235 13.669634 -7.343897 -12.906159 46.326322 0.053470 -12.175470 19.475398 -0.070800 -1.716500 4.722800 6.426003 3.044933 7.759395 2.014672 4.355523 0.598182 -0.195657 2.480910 -3.895346 -7.655456 -5.603902 -14.600083 4.624379 -6.166268 5.745294 2.842700 -3.020200 6.801000 -3.689998 3.495367 -2.759854 -82.388573 30.306998 38.372374 112.471266 -62.421137 -81.398786 -0.039769 -0.836311 -28.590923 15.868326 8.156185 2.585300 -7.125000 0.000000 0.000000 -9.189200 39.067300 1.356600 1.526502 -2.572184 -1.468287 83.358335 -9.255058 40.320279 -137.346461 50.691500 -100.727185 1.349908 -0.986799 -7.049225 -16.604422 22.360240 -7.275400 7.125000 0.000000 0.000000 7.018300 -5.688000 6.337000 
5.521920 105.381936 -184.730760 -2.793981 1.713357 5.347677 4.759757 2.815515 1.479660 -22.220029 -12.124022 -30.672392 2.734862 10.199099 30.524445 0.723402 -5.385018 9.646518 0.000300 0.115400 0.317100 -6.510765 -3.411735 -0.530386 35.450213 5.308884 7.714240 -11.624948 -16.068890 62.651681 -0.040974 -12.462978 18.659696 -0.087200 -1.904100 5.240700 3.669953 2.923266 8.285345 1.775944 3.971140 1.102873 0.961601 2.315672 -3.480973 -7.783004 -5.446617 -14.113219 5.043694 -5.929314 4.859210 3.034200 -2.873600 6.415400 -3.732067 3.529593 -2.638617 -81.595577 27.502877 40.027958 115.297105 -61.823420 -83.420531 -0.089009 -0.826348 -28.419684 16.798345 8.381073 2.806800 -7.125000 0.000000 0.000000 -8.394100 39.339700 1.180500 1.594309 -2.545527 -1.465031 83.638623 -11.096930 40.028468 -134.954811 51.928699 -99.135288 1.281551 -0.847027 -6.382442 -15.852771 19.929334 -6.215400 7.125000 0.000000 0.000000 7.350900 -8.427800 6.247100 
5.464038 102.910374 -175.679916 -1.887451 2.570597 4.372968 4.936961 2.840849 1.358208 -24.192939 -12.708373 -27.982211 4.785994 12.893720 40.195391 0.767416 -6.156135 -2.240528 0.019900 0.911500 2.505400 -6.540718 -3.524897 -0.300775 32.614153 4.833590 -0.217569 -16.405017 -18.002338 78.471799 -0.092416 -10.656823 16.378746 -0.032300 -1.159500 3.187700 3.531397 1.905967 7.182852 0.901419 2.490566 2.747657 -0.416847 1.589845 -0.052962 -7.156751 -5.126807 -13.975026 6.589360 -5.592352 2.824276 3.489200 -2.543700 5.699200 -3.884379 3.701325 -2.395737 -79.756251 20.731201 40.684900 119.827710 -60.716700 -86.652512 -0.134039 -0.756003 -27.725586 16.140744 8.355206 2.661800 -7.125000 0.000000 0.000000 -8.941400 39.178300 1.294700 1.714892 -2.599026 -1.381734 85.827814 -10.252232 40.053874 -131.469929 53.647209 -96.557154 1.393942 -0.894785 -6.952419 -17.627459 22.906591 -7.878300 7.125000 0.000000 0.000000 6.384000 -5.074300 5.831500 
5.218200 100.591572 -167.235924 1.319416 1.795099 4.620719 5.032944 2.936306 1.245270 -28.568734 -12.035352 -24.762401 6.171406 14.189782 45.747969 1.083403 -4.350530 -11.288662 0.003000 -0.354500 -0.973900 -6.644194 -3.667756 0.277897 26.125385 6.600635 -11.731904 -21.385386 -18.868389 93.689309 -0.561357 -6.393085 15.704237 -0.129700 -2.321200 6.394100 -1.779346 1.829034 11.706257 0.661320 1.988464 1.401314 2.142216 1.383734 -4.946550 -8.011394 -5.122254 -14.302115 6.571604 -5.474075 4.797188 3.575900 -2.536900 6.468400 -3.891835 3.560855 -2.408094 -80.789782 17.698491 41.655791 124.565029 -59.174642 -90.135770 -0.149814 -0.760407 -30.459496 16.969246 9.454478 3.140900 -7.125000 0.000000 0.000000 -8.376200 40.348000 0.968500 1.701486 -2.392095 -1.463230 85.613797 -15.627532 39.142395 -128.257002 54.855633 -94.332643 1.448752 -0.783387 -9.363762 -17.277038 22.936998 -7.728200 7.125000 0.000000 0.000000 6.583000 -5.146700 6.006500 
5.124516 99.058038 -158.931564 0.992790 0.137287 6.506127 5.074885 3.019317 0.897590 -28.722149 -10.379340 -21.834244 6.656228 14.525587 47.485272 1.621424 -3.923745 -17.560413 0.036000 -1.225300 -3.369000 -6.719420 -3.870257 1.377911 23.647789 10.780671 -25.748556 -24.826510 -19.127609 103.887032 -0.820558 -3.404740 15.383093 -0.067200 1.672000 -4.600100 -2.041856 1.913869 11.202065 0.443138 2.031190 1.222852 1.912360 1.422099 -5.112267 -7.636027 -5.210965 -15.140457 6.928929 -5.647570 4.844471 3.581900 -2.558000 6.650900 -3.952262 3.558535 -2.279572 -81.462533 9.787505 41.749607 128.103043 -57.914190 -92.674203 -0.172514 -0.792602 -31.177807 18.133632 11.484425 4.045000 -7.125000 0.000000 0.000000 -7.692600 42.566000 0.465000 1.803197 -2.366642 -1.502381 86.987848 -18.914336 37.288671 -123.730980 56.431241 -91.076283 1.443472 -0.668370 -7.409891 -17.750901 21.404733 -7.427200 7.125000 0.000000 0.000000 6.128100 -6.810000 5.389900 
5.118546 99.042522 -150.231582 2.250012 1.435603 7.795751 4.942029 3.090733 0.636017 -30.701651 -9.935203 -15.458342 6.110252 13.752042 45.155044 1.667681 -3.005722 -18.918328 0.188200 -2.793700 -7.704900 -6.349268 -4.084529 2.176906 19.610641 10.058301 -37.910052 -25.809415 -19.451062 106.817539 -0.903859 -0.600974 13.895699 -0.019200 0.894700 -2.459100 -3.205323 0.514823 11.002896 0.430869 0.002159 0.890733 2.727685 0.471418 -5.447048 -7.833319 -4.673075 -16.719013 6.990603 -4.866040 6.226316 3.689400 -2.162200 7.314400 -3.954855 3.540356 -2.209594 -83.806673 5.434651 39.492342 132.432342 -56.162142 -95.788730 -0.260420 -0.638512 -27.980990 16.966200 7.857692 2.604100 -7.125000 0.000000 0.000000 -8.076200 38.554000 1.292200 1.795154 -2.354808 -1.541379 86.574382 -22.772336 37.973678 -123.757225 56.381710 -91.140318 1.415032 -0.755957 -6.403108 -16.594106 22.092173 -7.161900 7.125000 0.000000 0.000000 6.923800 -6.208700 6.180700 
